# xmcd
#
# Track frame offsets:
#	150
#	9679
#	23857
#	34062
#	43481
#	55975
#	64755
#	75287
#	83348
#	91488
#	111723
#	137035
#
# Disc length: 3288 seconds
#
# Revision: 1
# Processed by: cddbd v1.5.1PL0 Copyright (c) Steve Scherf et al.
# Submitted via: EasyCDDAExtractor 7.0.6.1
#
DISCID=9b0cd60c
DTITLE=Johnny Chester
DYEAR=1900
DGENRE=Classic Rock
TTITLE0=Stepping Out
TTITLE1=Forty Days
TTITLE2=The Old Copper Kettle
TTITLE3=Bye Bye Johnny
TTITLE4=My Babe
TTITLE5=It'll Be Me
TTITLE6=Milk Cow Blues
TTITLE7=I Feel Good All Over
TTITLE8=Lonely Weekends
TTITLE9=Irene Goodnight
TTITLE10=Unchained Melody
TTITLE11=Data
EXTD=
EXTT0=
EXTT1=
EXTT2=
EXTT3=
EXTT4=
EXTT5=
EXTT6=
EXTT7=
EXTT8=
EXTT9=
EXTT10=
EXTT11=
PLAYORDER=
